<?xml version="1.0" encoding="iso-8859-1"?>
<!-- Generator: Adobe Illustrator 19.0.0, SVG Export Plug-In . SVG Version: 6.00 Build 0)  -->
<svg version="1.1" id="Layer_1" xmlns="http://www.w3.org/2000/svg" xmlns:xlink="http://www.w3.org/1999/xlink" x="0px" y="0px"
	 viewBox="0 0 392.598 392.598" style="enable-background:new 0 0 392.598 392.598;" xml:space="preserve">
<path style="fill:#FFFFFF;" d="M196.267,52.816c-96.194,0-174.481,78.287-174.481,174.481c0,41.244,14.61,81.067,41.18,112.485
	h266.602c26.57-31.418,41.18-71.24,41.18-112.485C370.747,131.103,292.461,52.816,196.267,52.816z"/>
<path style="fill:#194F82;" d="M196.267,31.03C87.984,31.03,0,119.079,0,227.297c0,48.291,17.713,94.642,49.842,130.651
	c2.069,2.327,5.042,3.62,8.145,3.62H334.61c3.103,0,6.012-1.293,8.145-3.62c32.129-36.008,49.842-82.36,49.842-130.651
	C392.533,119.079,304.549,31.03,196.267,31.03z M62.966,339.846c-26.57-31.418-41.18-71.24-41.18-112.485
	c0-96.259,78.287-174.545,174.481-174.545s174.481,78.287,174.481,174.481c0,41.244-14.61,81.067-41.18,112.485H62.966V339.846z"/>
<path style="fill:#56ACE0;" d="M73.503,318.061c-19.394-26.182-29.931-57.859-29.931-90.699c0-84.17,68.461-152.695,152.695-152.695
	c84.17,0,152.695,68.461,152.695,152.695c0,32.84-10.537,64.517-29.931,90.699H73.503z"/>
<circle style="fill:#FFC10D;" cx="196.267" cy="227.62" r="19.846"/>
<g>
	<path style="fill:#194F82;" d="M261.301,101.366l2.909-6.853c2.327-5.56-0.259-11.96-5.818-14.287
		c-5.56-2.327-11.96,0.259-14.287,5.818l-42.473,100.655c-1.745-0.259-3.62-0.388-5.43-0.388c-22.885,0-41.309,18.554-41.309,41.309
		c0,22.885,18.554,41.309,41.309,41.309s41.309-18.554,41.309-41.309c0-13.188-6.206-24.954-15.838-32.517l30.966-73.568
		c38.788,20.816,63.354,61.091,63.354,105.697c0,6.012,4.848,10.925,10.925,10.925c6.012,0,10.925-4.848,10.925-10.925
		C337.972,173.899,308.234,125.608,261.301,101.366z M196.267,247.531c-10.99,0-19.846-8.857-19.846-19.846
		s8.857-19.846,19.846-19.846s19.846,8.857,19.846,19.846S207.257,247.531,196.267,247.531z"/>
	<path style="fill:#194F82;" d="M207.192,96.517c0-6.012-4.848-10.925-10.925-10.925c-78.222,0-141.705,63.612-141.705,141.705
		c0,6.012,4.848,10.925,10.925,10.925s10.925-4.848,10.925-10.925c0-66.133,53.786-119.919,119.919-119.919
		C202.279,107.378,207.192,102.529,207.192,96.517z"/>
</g>
<g>
</g>
<g>
</g>
<g>
</g>
<g>
</g>
<g>
</g>
<g>
</g>
<g>
</g>
<g>
</g>
<g>
</g>
<g>
</g>
<g>
</g>
<g>
</g>
<g>
</g>
<g>
</g>
<g>
</g>
</svg>
